<svg width="110" height="110" viewBox="0 0 110 110" fill="none" xmlns="http://www.w3.org/2000/svg">
<path d="M54.9854 110C42.2961 109.994 29.9992 105.601 20.178 97.5673C10.3568 89.5333 3.61522 78.3515 1.09554 65.9165C-1.42414 53.4814 0.432976 40.5578 6.35225 29.3351C12.2715 18.1124 21.889 9.28079 33.5751 4.33659C47.0156 -1.34107 62.1614 -1.44762 75.6805 4.04038C89.1995 9.52837 99.9845 20.1614 105.663 33.6002C111.341 47.0391 111.448 62.1829 105.959 75.7003C100.47 89.2178 89.8362 100.001 76.3957 105.679C69.6224 108.545 62.3402 110.015 54.9854 110ZM54.9854 1.54377C42.6486 1.54917 30.6929 5.81873 21.144 13.6291C11.5952 21.4394 5.04029 32.3103 2.58996 44.3998C0.139615 56.4894 1.9445 69.0542 7.69882 79.9655C13.4531 90.8767 22.803 99.4635 34.1644 104.271C47.2314 109.792 61.9568 109.897 75.1013 104.563C88.2457 99.2285 98.7325 88.8916 104.255 75.8263C109.777 62.7609 109.882 48.0373 104.547 34.8944C99.2115 21.7516 88.8734 11.2662 75.8064 5.74477C69.2195 2.9576 62.1377 1.52872 54.9854 1.54377Z" fill="#554EB2"/>
<path d="M37.0747 44.15C37.0747 36.538 37.0747 32.7293 39.4407 30.366C41.804 28 45.6127 28 53.2248 28H58.6081C66.2202 28 70.0289 28 72.3922 30.366C74.7582 32.7293 74.7582 36.538 74.7582 44.15V65.6834C74.7582 73.2955 74.7582 77.1042 72.3922 79.4675C70.0289 81.8335 66.2202 81.8335 58.6081 81.8335H53.2248C45.6127 81.8335 41.804 81.8335 39.4407 79.4675C37.0747 77.1042 37.0747 73.2955 37.0747 65.6834V44.15Z" stroke="#3CDEDB" stroke-width="2"/>
<path opacity="0.5" d="M37.075 33.5889C34.4506 33.8473 32.6849 34.4314 31.366 35.7503C29 38.1136 29 41.9223 29 49.5343V60.301C29 67.9131 29 71.7218 31.366 74.0851C32.6849 75.404 34.4506 75.9881 37.075 76.2465M74.7585 33.5889C77.3829 33.8473 79.1486 34.4314 80.4675 35.7503C82.8335 38.1136 82.8335 41.9223 82.8335 49.5343V60.301C82.8335 67.9131 82.8335 71.7218 80.4675 74.0851C79.1486 75.404 77.3829 75.9881 74.7585 76.2465" stroke="#3CDEDB" stroke-width="2"/>
<path opacity="0.7" d="M47.8423 57.6074H63.9923" stroke="#3CDEDB" stroke-width="2" stroke-linecap="round"/>
<path d="M47.8423 46.8423H63.9923" stroke="#3CDEDB" stroke-width="2" stroke-linecap="round"/>
<path opacity="0.4" d="M47.8423 68.3745H55.9173" stroke="#3CDEDB" stroke-width="2" stroke-linecap="round"/>
</svg>
