<svg width="110" height="110" viewBox="0 0 110 110" fill="none" xmlns="http://www.w3.org/2000/svg">
<path d="M54.9854 110C42.2961 109.994 29.9992 105.601 20.178 97.5673C10.3568 89.5333 3.61522 78.3515 1.09554 65.9165C-1.42414 53.4814 0.432976 40.5578 6.35225 29.3351C12.2715 18.1124 21.889 9.28079 33.5751 4.33659C47.0156 -1.34107 62.1614 -1.44762 75.6805 4.04038C89.1995 9.52837 99.9845 20.1614 105.663 33.6002C111.341 47.0391 111.448 62.1829 105.959 75.7003C100.47 89.2178 89.8362 100.001 76.3957 105.679C69.6224 108.545 62.3402 110.015 54.9854 110ZM54.9854 1.54377C42.6486 1.54917 30.6929 5.81873 21.144 13.6291C11.5952 21.4394 5.04029 32.3103 2.58996 44.3998C0.139615 56.4894 1.9445 69.0542 7.69882 79.9655C13.4531 90.8767 22.803 99.4635 34.1644 104.271C47.2314 109.792 61.9568 109.897 75.1013 104.563C88.2457 99.2285 98.7325 88.8916 104.255 75.8263C109.777 62.7609 109.882 48.0373 104.547 34.8944C99.2115 21.7516 88.8734 11.2662 75.8064 5.74477C69.2195 2.9576 62.1377 1.52872 54.9854 1.54377Z" fill="#554EB2"/>
<path d="M51.7238 62.5372L51.6076 62.2768L51.3478 62.1594L44.0409 58.8571L51.3478 55.5549L51.6076 55.4375L51.7238 55.1771L55 47.8376L58.2762 55.1771L58.3924 55.4375L58.6522 55.5549L65.9591 58.8571L58.6522 62.1594L58.3924 62.2768L58.2762 62.5372L55 69.8767L51.7238 62.5372ZM43.8667 58.8571C43.8667 58.8573 43.8667 58.8574 43.8667 58.8574V58.8571ZM66.1333 58.8571C66.1333 58.857 66.1333 58.8569 66.1333 58.8569V58.8571ZM49.8871 28.75H49.8889H60.1111C60.6444 28.75 61.0576 28.9235 61.4013 29.2693C61.7451 29.6152 61.9179 30.0317 61.9167 30.5697V30.5714C61.9167 31.1122 61.7426 31.5301 61.3987 31.8762C61.0551 32.2219 60.6434 32.3941 60.1129 32.3929H60.1111H49.8889C49.3556 32.3929 48.9439 32.2195 48.6022 31.8745C48.259 31.528 48.0848 31.11 48.0833 30.5705C48.0835 30.0302 48.2576 29.6126 48.6013 29.2667C48.9449 28.921 49.3566 28.7487 49.8871 28.75ZM55.0004 81.25H55C51.9481 81.25 49.0805 80.6589 46.3898 79.4796C43.6844 78.294 41.3243 76.6864 39.3038 74.6566C37.2852 72.6254 35.6866 70.2506 34.5079 67.5259C33.3354 64.8155 32.7484 61.9285 32.75 58.8575V58.8571C32.75 55.7843 33.3379 52.8963 34.5105 50.1858C35.6893 47.4609 37.2872 45.0868 39.3042 43.0573C41.3229 41.026 43.6827 39.4178 46.3897 38.2321C49.0821 37.0529 51.9495 36.4626 54.9996 36.4643H55C57.5579 36.4643 60.0076 36.8791 62.3531 37.7072C64.7038 38.5372 66.9134 39.7415 68.9833 41.3243L69.5065 41.7245L69.9709 41.2573L71.7598 39.4573C72.0742 39.1409 72.4726 38.9714 73.0167 38.9714C73.5607 38.9714 73.9592 39.1409 74.2736 39.4573C74.5884 39.774 74.7583 40.1772 74.7583 40.7286C74.7583 41.28 74.5884 41.6832 74.2736 41.9999L72.4847 43.7999L72.026 44.2614L72.4182 44.7806C73.9915 46.8636 75.1888 49.0877 76.014 51.4541C76.8375 53.8154 77.25 56.2818 77.25 58.8571C77.25 61.93 76.6621 64.818 75.4895 67.5285C74.3107 70.2534 72.7128 72.6275 70.6958 74.657C68.6771 76.6883 66.3173 78.2965 63.6103 79.4822C60.9179 80.6614 58.0505 81.2517 55.0004 81.25ZM55 77.6071C60.1411 77.6071 64.549 75.7699 68.182 72.1144C71.8147 68.4591 73.6389 64.0259 73.6389 58.8571C73.6389 53.6884 71.8147 49.2552 68.182 45.5999C64.549 41.9444 60.1411 40.1071 55 40.1071C49.8589 40.1071 45.451 41.9444 41.818 45.5999C38.1853 49.2552 36.3611 53.6884 36.3611 58.8571C36.3611 64.0259 38.1853 68.4591 41.818 72.1144C45.451 75.7699 49.8589 77.6071 55 77.6071Z" fill="#3CDEDB" stroke="#171818" stroke-width="1.5"/>
<path d="M49.5538 28.75V28.75H49.5556H59.7778C60.3111 28.75 60.7242 28.9235 61.0679 29.2693C61.4117 29.6152 61.5846 30.0317 61.5833 30.5697V30.5714C61.5833 31.1122 61.4093 31.5301 61.0654 31.8762C60.7218 32.2219 60.3101 32.3941 59.7796 32.3929H59.7778H49.5556C49.0223 32.3929 48.6105 32.2195 48.2689 31.8745C47.9257 31.528 47.7515 31.11 47.75 30.5706C47.7502 30.0302 47.9242 29.6126 48.268 29.2667C48.6116 28.921 49.0233 28.7487 49.5538 28.75ZM49.5556 28H59.7778C60.5018 28 61.1092 28.2469 61.5999 28.7406C62.0906 29.2343 62.335 29.8446 62.3333 30.5714C62.3333 31.3 62.088 31.9112 61.5973 32.4049C61.1067 32.8986 60.5001 33.1446 59.7778 33.1429H49.5556C48.8315 33.1429 48.225 32.896 47.736 32.4023C47.247 31.9086 47.0017 31.2983 47 30.5714L49.5556 28Z" fill="#2B7C7B" stroke="#171818" stroke-width="1.5"/>
</svg>
