<svg width="110" height="110" viewBox="0 0 110 110" fill="none" xmlns="http://www.w3.org/2000/svg">
<path d="M54.9854 110C42.2961 109.994 29.9992 105.601 20.178 97.5673C10.3568 89.5333 3.61522 78.3515 1.09554 65.9165C-1.42414 53.4814 0.432976 40.5578 6.35225 29.3351C12.2715 18.1124 21.889 9.28079 33.5751 4.33659C47.0156 -1.34107 62.1614 -1.44762 75.6805 4.04038C89.1995 9.52837 99.9845 20.1614 105.663 33.6002C111.341 47.0391 111.448 62.1829 105.959 75.7003C100.47 89.2178 89.8362 100.001 76.3957 105.679C69.6224 108.545 62.3402 110.015 54.9854 110ZM54.9854 1.54377C42.6486 1.54917 30.6929 5.81873 21.144 13.6291C11.5952 21.4394 5.04029 32.3103 2.58996 44.3998C0.139615 56.4894 1.9445 69.0542 7.69882 79.9655C13.4531 90.8767 22.803 99.4635 34.1644 104.271C47.2314 109.792 61.9568 109.897 75.1013 104.563C88.2457 99.2285 98.7325 88.8916 104.255 75.8263C109.777 62.7609 109.882 48.0373 104.547 34.8944C99.2115 21.7516 88.8734 11.2662 75.8064 5.74477C69.2195 2.9576 62.1377 1.52872 54.9854 1.54377Z" fill="#554EB2"/>
<path opacity="0.5" d="M71.5365 65.5489L71.949 65.0247C73.8668 62.5871 75.2536 59.7785 76.0212 56.7777C76.7888 53.777 76.9204 50.6499 76.4077 47.5958L76.4066 47.5893C74.8837 38.009 67.0065 30.3268 57.3538 28.9771L71.5365 65.5489ZM71.5365 65.5489L72.0091 66.0197M71.5365 65.5489L72.0091 66.0197M72.0091 66.0197L83.6189 77.5854C84.0233 77.9883 84.25 78.5341 84.25 79.1027C84.25 79.6713 84.0233 80.2172 83.6189 80.6201C83.2143 81.0231 82.665 81.25 82.0917 81.25C81.5183 81.25 80.969 81.0231 80.5645 80.6201L68.9547 69.0544L68.4853 68.5868L67.9633 68.995C64.1531 71.9754 59.3558 73.7468 54.132 73.7468C44.5075 73.7468 36.2697 67.7215 33.0262 59.2642H37.762C40.739 65.2714 46.9408 69.4349 54.132 69.4349H54.133C56.7163 69.4316 59.2696 68.8829 61.6247 67.8248C63.9798 66.7668 66.0833 65.2235 67.7964 63.2964C69.5095 61.3692 70.7934 59.1021 71.5632 56.6444C72.333 54.1866 72.5712 51.5942 72.262 49.0379L72.2619 49.0371M72.0091 66.0197L72.2619 49.0371M72.2619 49.0371C71.2879 41.0623 64.9349 34.4896 56.9882 33.2758C52.2425 32.5395 47.3962 33.6935 43.4973 36.4889C39.7706 39.1608 37.1955 43.1273 36.2709 47.5934H31.8665M72.2619 49.0371L31.8665 47.5934M31.8665 47.5934C33.7912 35.8962 44.7486 27.2186 57.3536 28.9771L31.8665 47.5934Z" fill="#3CDEDB" stroke="#151717" stroke-width="1.5"/>
<path d="M47.0381 47.6205L46.6243 45.8404L46.0743 47.5833L44.1599 53.6495L44.1595 53.651C43.8484 54.6471 42.9414 55.3125 41.8812 55.3125H27.1754C26.2581 55.3125 25.5 54.5547 25.5 53.6562C25.5 52.7578 26.2581 52 27.1754 52H40.808H41.1749L41.285 51.65L44.2145 42.335L44.2146 42.3347C44.5548 41.2509 45.5788 40.5 46.7251 40.5C47.948 40.5 49.0181 41.3508 49.2836 42.4989L52.3001 55.5513L52.6971 57.2691L53.261 55.5987L55.8126 48.0401C55.8127 48.0397 55.8129 48.0393 55.813 48.0389C56.1803 46.9727 57.1819 46.25 58.2983 46.25H58.4434C59.5207 46.25 60.4695 46.8791 60.8835 47.8425C60.8838 47.8432 60.8841 47.8438 60.8844 47.8445L63.6962 54.5679L63.8246 54.875H64.1575H64.8246C65.7419 54.875 66.5 55.6328 66.5 56.5312C66.5 57.4297 65.7419 58.1875 64.8246 58.1875H63.1423C62.1924 58.1875 61.3229 57.5976 60.9334 56.7082C60.9329 56.7071 60.9325 56.7061 60.932 56.7051L58.9335 51.9391L58.4201 50.7151L57.9983 51.9736L55.07 60.7099C55.0698 60.7104 55.0696 60.711 55.0694 60.7116C54.702 61.7775 53.7005 62.5 52.5843 62.5C51.3638 62.5 50.293 61.6518 50.0263 60.4746L50.0257 60.4718L47.0381 47.6205Z" fill="#3CDEDB" stroke="#171818"/>
</svg>
