<svg xmlns:xlink="http://www.w3.org/1999/xlink" xmlns="http://www.w3.org/2000/svg"
    viewBox="0 0 69.507 24.206">
    <g transform="translate(-1877.973 -139.071)">
        <path fill="#F6F5F5"
            d="M3559.275,1813.02v0h2.065V1809h-3.395a3.562,3.562,0,0,0-3.508,3.512h0v5.9h0c0,.017,0,.034,0,.052a.98.98,0,0,1-.825.968H3553v3.312h.612a.981.981,0,0,1,.825.968c0,.018,0,.035,0,.052h0v5.9h0a3.27,3.27,0,0,0,3.153,3.511l.355,0h3.395v-4.017h-2.065v0a.877.877,0,0,1-.826-.876c0-.017,0-.034,0-.051h0v-4.868a2.377,2.377,0,0,1,0-4.545v-4.868h0c0-.018,0-.035,0-.052A.877.877,0,0,1,3559.275,1813.02Z"
            transform="translate(-1640.362 -1669.929)"></path>
        <path fill="#F6F5F5"
            d="M3555.062,1813.02v0H3553V1809h3.394a3.562,3.562,0,0,1,3.509,3.512h0v5.9h0c0,.017,0,.034,0,.052a.98.98,0,0,0,.825.968h.612v3.312h-.612a.981.981,0,0,0-.825.968c0,.018,0,.035,0,.052h0v5.9h0a3.27,3.27,0,0,1-3.153,3.511l-.355,0H3553v-4.017h2.064v0a.877.877,0,0,0,.825-.876c0-.017,0-.034,0-.051h0v-4.868a2.377,2.377,0,0,0,0-4.545v-4.868h0c0-.018,0-.035,0-.052A.877.877,0,0,0,3555.062,1813.02Z"
            transform="translate(-1613.859 -1669.929)"></path>
        <path fill="#19E8E0" d="M21.018-114.245H16.376l9.182-24.206h4.708Z"
            transform="translate(1906.7 277.522)"></path>
        <path fill="#FFFFFF"
            d="M3392,1833.438c-2.126,0-3.453-.563-4.388-1.688s-1.4-2.961-1.4-5.508v-12.748h-4.147v-4.156h8.436v16.19a4.936,4.936,0,0,0,.636,2.866,2.465,2.465,0,0,0,2.124.863h3.589v4.181Z"
            transform="translate(-1486.468 -1670.191)"></path>
        <path fill="#FFFFFF"
            d="M3219.466,1816.62h-5.991v-1.847q0-1.026.919-1.026h5.072v-4.1h-6.843a3.286,3.286,0,0,0-2.45,1.01,3.408,3.408,0,0,0-.987,2.479v3.489h-3.639v4.1h3.639v12.86h4.288v-12.86h5.991Z"
            transform="translate(-1327.575 -1670.464)"></path>
    </g>
</svg>